<?xml version="1.0" encoding="utf-8"?><svg xmlns="http://www.w3.org/2000/svg" xmlns:xlink="http://www.w3.org/1999/xlink"><symbol viewBox="0 0 24 24" id="arrow" xmlns="http://www.w3.org/2000/svg"><path d="M8.484 5.016L13.5 12l-5.016 6.984h-4.5L9 12 3.984 5.016h4.5zm7.032 0L20.485 12l-4.969 6.984h-4.5L15.985 12l-4.969-6.984h4.5z"/></symbol><symbol viewBox="0 0 19 28" id="arrow-right" xmlns="http://www.w3.org/2000/svg"><path d="M17.297 13.703L5.703 25.297a.99.99 0 01-1.406 0l-2.594-2.594a.99.99 0 010-1.406L10 13 1.703 4.703a.99.99 0 010-1.406L4.297.703a.99.99 0 011.406 0l11.594 11.594a.99.99 0 010 1.406z"/></symbol><symbol viewBox="0 0 32 32" id="calendar" xmlns="http://www.w3.org/2000/svg"><path d="M10 12h4v4h-4zm6 0h4v4h-4zm6 0h4v4h-4zM4 24h4v4H4zm6 0h4v4h-4zm6 0h4v4h-4zm-6-6h4v4h-4zm6 0h4v4h-4zm6 0h4v4h-4zM4 18h4v4H4zM26 0v2h-4V0H8v2H4V0H0v32h30V0h-4zm2 30H2V8h26v22z"/></symbol><symbol viewBox="0 0 16 16" id="circle-right" xmlns="http://www.w3.org/2000/svg"><path d="M8 0a8 8 0 100 16A8 8 0 008 0zm0 14.5a6.5 6.5 0 110-13 6.5 6.5 0 010 13z"/><path d="M5.543 11.043l1.414 1.414L11.414 8 6.957 3.543 5.543 4.957 8.586 8z"/></symbol><symbol viewBox="0 0 24 24" id="double-arrow-right" xmlns="http://www.w3.org/2000/svg"><path d="M8.484 5.016L13.5 12l-5.016 6.984h-4.5L9 12 3.984 5.016h4.5zm7.032 0L20.485 12l-4.969 6.984h-4.5L15.985 12l-4.969-6.984h4.5z"/></symbol><symbol viewBox="0 0 16 16" id="enter1" xmlns="http://www.w3.org/2000/svg"><path d="M6 8H1V6h5V4l3 3-3 3zm10-8v13l-6 3v-3H4V9h1v3h5V3l4-2H5v4H4V0z"/></symbol><symbol viewBox="0 0 38 32" id="envelope" xmlns="http://www.w3.org/2000/svg"><path d="M20.06.413c-.58-.533-1.539-.533-2.119 0L.253 11.084a.501.501 0 00-.242.428v18.922C.011 31.297.717 32 1.585 32h34.83c.868 0 1.574-.703 1.574-1.566V11.512a.501.501 0 00-.242-.428L20.06.413zm-1.556.827a.527.527 0 00.095-.074.566.566 0 01.801 0 .564.564 0 00.095.074l17.227 10.394-12.478 7.436a.501.501 0 00.511.86L37 12.64v17.757L20.065 19.131c-.538-.429-1.594-.429-2.096-.025L1 30.392V12.64l12.244 7.29a.5.5 0 00.512-.86L1.277 11.634 18.504 1.24zM36.09 31H1.902l16.656-11.086c.173-.138.712-.137.919.025L36.09 31zM6.5 13h25a.5.5 0 000-1h-25a.5.5 0 000 1z"/></symbol><symbol viewBox="0 0 16 16" id="exit" xmlns="http://www.w3.org/2000/svg"><path d="M12 10V8H7V6h5V4l3 3zm-1-1v4H6v3l-6-3V0h11v5h-1V1H2l4 2v9h4V9z"/></symbol><symbol viewBox="0 0 32 32" id="facebook" xmlns="http://www.w3.org/2000/svg"><path d="M29 0H3C1.35 0 0 1.35 0 3v26c0 1.65 1.35 3 3 3h13V18h-4v-4h4v-2c0-3.306 2.694-6 6-6h4v4h-4c-1.1 0-2 .9-2 2v2h6l-1 4h-5v14h9c1.65 0 3-1.35 3-3V3c0-1.65-1.35-3-3-3z"/></symbol><symbol viewBox="0 0 16 16" id="in-alt" xmlns="http://www.w3.org/2000/svg"><path d="M15 0H8a1 1 0 100 2h6v12H8a1 1 0 100 2h7a1 1 0 001-1V1a1 1 0 00-1-1zM7 12l4-4-4-4v3H.893C.399 7 0 7.448 0 8s.4 1 .893 1H7v3z"/></symbol><symbol viewBox="0 0 32 32" id="instagram" xmlns="http://www.w3.org/2000/svg"><path d="M16 2.881c4.275 0 4.781.019 6.462.094 1.563.069 2.406.331 2.969.55a4.952 4.952 0 011.837 1.194 5.015 5.015 0 011.2 1.838c.219.563.481 1.412.55 2.969.075 1.688.094 2.194.094 6.463s-.019 4.781-.094 6.463c-.069 1.563-.331 2.406-.55 2.969a4.94 4.94 0 01-1.194 1.837 5.02 5.02 0 01-1.837 1.2c-.563.219-1.413.481-2.969.55-1.688.075-2.194.094-6.463.094s-4.781-.019-6.463-.094c-1.563-.069-2.406-.331-2.969-.55a4.952 4.952 0 01-1.838-1.194 5.02 5.02 0 01-1.2-1.837c-.219-.563-.481-1.413-.55-2.969-.075-1.688-.094-2.194-.094-6.463s.019-4.781.094-6.463c.069-1.563.331-2.406.55-2.969a4.964 4.964 0 011.194-1.838 5.015 5.015 0 011.838-1.2c.563-.219 1.412-.481 2.969-.55 1.681-.075 2.188-.094 6.463-.094zM16 0c-4.344 0-4.887.019-6.594.094-1.7.075-2.869.35-3.881.744-1.056.412-1.95.956-2.837 1.85a7.833 7.833 0 00-1.85 2.831C.444 6.538.169 7.7.094 9.4.019 11.113 0 11.656 0 16s.019 4.887.094 6.594c.075 1.7.35 2.869.744 3.881.413 1.056.956 1.95 1.85 2.837a7.82 7.82 0 002.831 1.844c1.019.394 2.181.669 3.881.744 1.706.075 2.25.094 6.594.094s4.888-.019 6.594-.094c1.7-.075 2.869-.35 3.881-.744 1.05-.406 1.944-.956 2.831-1.844s1.438-1.781 1.844-2.831c.394-1.019.669-2.181.744-3.881.075-1.706.094-2.25.094-6.594s-.019-4.887-.094-6.594c-.075-1.7-.35-2.869-.744-3.881a7.506 7.506 0 00-1.831-2.844A7.82 7.82 0 0026.482.843C25.463.449 24.301.174 22.601.099c-1.712-.081-2.256-.1-6.6-.1z"/><path d="M16 7.781c-4.537 0-8.219 3.681-8.219 8.219s3.681 8.219 8.219 8.219 8.219-3.681 8.219-8.219A8.221 8.221 0 0016 7.781zm0 13.55a5.331 5.331 0 110-10.663 5.331 5.331 0 010 10.663zM26.462 7.456a1.919 1.919 0 11-3.838 0 1.919 1.919 0 013.838 0z"/></symbol><symbol viewBox="0 0 32 32" id="like" xmlns="http://www.w3.org/2000/svg"><path d="M29.164 10.472c-1.25-.328-4.189-.324-8.488-.438.203-.938.25-1.784.25-3.286C20.926 3.16 18.312 0 16 0c-1.633 0-2.979 1.335-3 2.977-.022 2.014-.645 5.492-4 7.256-.246.13-.95.477-1.053.522L8 10.8c-.525-.453-1.253-.8-2-.8H3c-1.654 0-3 1.346-3 3v16c0 1.654 1.346 3 3 3h3c1.19 0 2.186-.719 2.668-1.727.012.004.033.01.047.012l.239.062.046.012c.576.143 1.685.408 4.055.953.508.116 3.192.688 5.972.688h5.467c1.666 0 2.867-.641 3.582-1.928.01-.02.24-.469.428-1.076a3.33 3.33 0 00.023-1.76c1.074-.738 1.42-1.854 1.645-2.58.377-1.191.264-2.086.002-2.727.604-.57 1.119-1.439 1.336-2.766a3.757 3.757 0 00-.389-2.372c.566-.636.824-1.436.854-2.176l.012-.209c.007-.131.013-.212.013-.5 0-1.263-.875-2.874-2.836-3.434zM7 29a1 1 0 01-1 1H3a1 1 0 01-1-1V13a1 1 0 011-1h3a1 1 0 011 1v16zm22.977-14.465C29.957 15.029 29.75 16 28 16h-2a.5.5 0 100 1h1.938c1.5 0 1.697 1.244 1.6 1.844-.124.746-.474 2.156-2.163 2.156H25a.499.499 0 100 1h1.969c1.688 0 1.539 1.287 1.297 2.055-.319 1.009-.514 1.945-2.641 1.945h-1.631a.499.499 0 100 1h1.568c1.094 0 1.145 1.035 1.031 1.406-.125.406-.273.707-.279.721-.302.545-.789.873-1.82.873h-5.467c-2.746 0-5.47-.623-5.54-.639-4.154-.957-4.373-1.031-4.634-1.105 0 0-.846-.143-.846-.881L8 13.563c0-.469.299-.893.794-1.042.062-.024.146-.05.206-.075 4.568-1.892 5.959-6.04 6-9.446.006-.479.375-1 1-1 1.057 0 2.926 2.122 2.926 4.748 0 2.371-.096 2.781-.926 5.252 10 0 9.93.144 10.812.375 1.094.313 1.188 1.219 1.188 1.531 0 .343-.01.293-.023.629zM4.5 26a1.5 1.5 0 10.001 3.001A1.5 1.5 0 004.5 26zm0 2c-.275 0-.5-.225-.5-.5s.225-.5.5-.5.5.225.5.5-.225.5-.5.5z"/></symbol><symbol viewBox="0 0 16 16" id="message" xmlns="http://www.w3.org/2000/svg"><path d="M14.5 2h-13C.675 2 0 2.675 0 3.5v10c0 .825.675 1.5 1.5 1.5h13c.825 0 1.5-.675 1.5-1.5v-10c0-.825-.675-1.5-1.5-1.5zM6.23 8.6L2 11.895V4.057L6.23 8.6zM2.756 4h10.488L8 7.938 2.756 4zm3.639 4.777L8 10.5l1.605-1.723L12.895 13h-9.79l3.29-4.223zM9.77 8.6L14 4.057v7.838L9.77 8.6z"/></symbol><symbol viewBox="0 0 16 16" id="music" xmlns="http://www.w3.org/2000/svg"><path d="M15 0h1v11.5c0 1.381-1.567 2.5-3.5 2.5S9 12.881 9 11.5 10.567 9 12.5 9c.979 0 1.865.287 2.5.751V4L7 5.778V13.5C7 14.881 5.433 16 3.5 16S0 14.881 0 13.5 1.567 11 3.5 11c.979 0 1.865.287 2.5.751V2l9-2z"/></symbol><symbol viewBox="0 0 32 32" id="odnoklassniki" xmlns="http://www.w3.org/2000/svg"><path d="M19.34 23.253a15.473 15.473 0 004.8-1.987 2.422 2.422 0 00-2.58-4.097 10.487 10.487 0 01-11.12 0 2.419 2.419 0 00-3.333.753c0 .003 0 .005-.003.007a2.417 2.417 0 00.756 3.333l.003.003c1.473.927 3.096 1.6 4.795 1.984l-4.62 4.62a2.394 2.394 0 00-.037 3.383l.04.04c.459.472 1.08.707 1.699.707.62 0 1.24-.235 1.7-.707l4.561-4.539 4.539 4.541a2.42 2.42 0 003.421-.06 2.42 2.42 0 000-3.36zM16 16.517a8.269 8.269 0 008.26-8.257C24.26 3.707 20.553 0 16 0S7.74 3.707 7.74 8.263A8.265 8.265 0 0016 16.518zm0-11.676a3.424 3.424 0 013.419 3.42A3.422 3.422 0 0116 11.681a3.425 3.425 0 01-3.42-3.419A3.425 3.425 0 0116 4.841z"/></symbol><symbol viewBox="0 0 20 20" id="photo" xmlns="http://www.w3.org/2000/svg"><path d="M0 6c0-1.1.9-2 2-2h3l2-2h6l2 2h3a2 2 0 012 2v10a2 2 0 01-2 2H2a2 2 0 01-2-2V6zm10 10a5 5 0 000-10 5 5 0 000 10zm0-2a3 3 0 110-6 3 3 0 110 6z"/></symbol><symbol viewBox="0 0 1024 1024" id="set-icons" xmlns="http://www.w3.org/2000/svg"><path d="M256 384h128V256H256v128zm192 0h128V256H448v128zm192-128v128h128V256H640zM256 576h128V448H256v128zm192 0h128V448H448v128zm192 0h128V448H640v128zM256 768h128V640H256v128zm192 0h128V640H448v128zm192 0h128V640H640v128z"/></symbol><symbol viewBox="0 0 32 32" id="share" xmlns="http://www.w3.org/2000/svg"><path d="M8 20s1.838-6 12-6v6l12-8-12-8v6c-8 0-12 4.99-12 10zm14 4H4V12h3.934c.315-.372.654-.729 1.015-1.068 1.374-1.287 3.018-2.27 4.879-2.932H.001v20h26v-8.395l-4 2.667V24z"/></symbol><symbol viewBox="0 0 16 16" id="star" xmlns="http://www.w3.org/2000/svg"><path d="M16 6.204l-5.528-.803L8 .392 5.528 5.401 0 6.204l4 3.899-.944 5.505L8 13.009l4.944 2.599L12 10.103l4-3.899zm-8 5.569l-3.492 1.836.667-3.888L2.35 6.968l3.904-.567L8 2.864l1.746 3.537 3.904.567-2.825 2.753.667 3.888L8 11.773z"/></symbol><symbol viewBox="0 0 32 32" id="twitter" xmlns="http://www.w3.org/2000/svg"><path d="M32 7.075a12.941 12.941 0 01-3.769 1.031 6.601 6.601 0 002.887-3.631 13.21 13.21 0 01-4.169 1.594A6.565 6.565 0 0022.155 4a6.563 6.563 0 00-6.563 6.563c0 .512.056 1.012.169 1.494A18.635 18.635 0 012.23 5.195a6.56 6.56 0 00-.887 3.3 6.557 6.557 0 002.919 5.463 6.565 6.565 0 01-2.975-.819v.081a6.565 6.565 0 005.269 6.437 6.574 6.574 0 01-2.968.112 6.588 6.588 0 006.131 4.563 13.17 13.17 0 01-9.725 2.719 18.568 18.568 0 0010.069 2.95c12.075 0 18.681-10.006 18.681-18.681 0-.287-.006-.569-.019-.85A13.216 13.216 0 0032 7.076z"/></symbol><symbol viewBox="0 0 32 32" id="user" xmlns="http://www.w3.org/2000/svg"><path d="M18 22.082v-1.649c2.203-1.241 4-4.337 4-7.432 0-4.971 0-9-6-9s-6 4.029-6 9c0 3.096 1.797 6.191 4 7.432v1.649C7.216 22.637 2 25.97 2 30h28c0-4.03-5.216-7.364-12-7.918z"/></symbol><symbol viewBox="0 0 32 32" id="vk" xmlns="http://www.w3.org/2000/svg"><path d="M29 0H3C1.35 0 0 1.35 0 3v26c0 1.65 1.35 3 3 3h26c1.65 0 3-1.35 3-3V3c0-1.65-1.35-3-3-3zm-3.081 22.4l-2.925.044s-.631.125-1.456-.444c-1.094-.75-2.125-2.706-2.931-2.45-.813.256-.788 2.012-.788 2.012s.006.375-.181.575c-.2.219-.6.262-.6.262h-1.306s-2.888.175-5.431-2.475c-2.775-2.887-5.225-8.619-5.225-8.619s-.144-.375.013-.556c.175-.206.644-.219.644-.219l3.131-.019s.294.05.506.206c.175.125.269.369.269.369s.506 1.281 1.175 2.438c1.306 2.256 1.919 2.75 2.362 2.513.644-.35.45-3.194.45-3.194s.012-1.031-.325-1.488c-.262-.356-.756-.463-.969-.488-.175-.025.113-.431.488-.619.563-.275 1.556-.294 2.731-.281.913.006 1.181.069 1.538.15 1.081.262.712 1.269.712 3.681 0 .775-.137 1.863.419 2.219.238.156.825.025 2.294-2.469.694-1.181 1.219-2.569 1.219-2.569s.113-.25.288-.356c.181-.106.425-.075.425-.075l3.294-.019s.988-.119 1.15.331c.169.469-.369 1.563-1.712 3.356-2.206 2.944-2.456 2.669-.619 4.369 1.75 1.625 2.113 2.419 2.175 2.519.712 1.2-.813 1.294-.813 1.294z"/></symbol><symbol viewBox="0 0 80 32" id="youtube" xmlns="http://www.w3.org/2000/svg"><path d="M10.75 5.294a.449.449 0 00.012-.056l.033-.236-1.48-.008c-1.337-.008-1.746 0-1.783.034-.018.016-.479 1.77-1.302 4.946-.392 1.515-.723 2.725-.734 2.689s-.481-1.766-1.044-3.843c-.563-2.078-1.034-3.789-1.048-3.803-.019-.019-1.812-.028-3.263-.016-.21.002-.327-.41 1.876 6.598.305.97.762 2.344 1.015 3.052.292.817.5 1.448.642 1.974.251 1.002.26 1.63.205 2.363-.063.847-.073 6.826-.011 6.926.047.077 2.851.112 3.116.04.042-.012.071-.053.09-.279.066-.194.071-.968.071-4.18v-4.103l.179-.566c.117-.37.413-1.344.656-2.163s.538-1.801.654-2.18c1.057-3.447 2.067-6.838 2.094-7.032l.022-.158zM26.441 10.27l-.001.214h-.033l-.019 5.906-.018 5.726-.458.467c-.513.522-.925.722-1.297.629-.405-.102-.395.056-.429-6.712l-.031-6.23h-2.947v.214h-.034v6.759c0 7.242 0 7.237.367 7.965.293.579.719.861 1.45.958.962.128 2-.308 2.962-1.244l.418-.407v.701c0 .606.017.706.127.737.18.05 2.412.053 2.653.004l.2-.041v-.207l.034-.007V10.23l-2.944.039zM18.965 13.323c-.279-1.198-.802-2.004-1.664-2.561-1.353-.875-2.897-.967-4.331-.259-1.045.516-1.717 1.372-2.065 2.628-.041.15-.072.275-.095.463-.088.443-.099 1.105-.122 4.186-.035 4.748.019 5.313.614 6.391.583 1.058 1.794 1.833 3.112 1.993.397.048 1.201-.027 1.663-.155 1.051-.291 2.058-1.122 2.504-2.065.192-.407.309-.691.379-1.208.13-.707.14-1.849.14-4.762 0-3.715-.012-4.121-.136-4.651zM15.604 23c-.247.188-.679.27-1.031.195-.271-.058-.636-.482-.748-.869-.14-.482-.151-7.187-.03-8.502.199-.658.756-1.002 1.364-.838.474.128.716.424.854 1.046.103.461.115 1.035.093 4.414-.014 2.241-.022 3.336-.096 3.924-.074.371-.197.47-.407.63zM71.887 16.692h1.424l-.023-1.29c-.022-1.183-.039-1.319-.198-1.64-.249-.507-.617-.731-1.201-.731-.701 0-1.146.339-1.356 1.036-.089.296-.183 2.334-.116 2.51.038.098.241.116 1.469.116zM62.369 13.757c-.19-.383-.543-.571-.954-.556-.319.011-.674.146-1.015.407l-.254.193v9.269l.254.193c.576.439 1.209.532 1.644.241.172-.115.285-.274.372-.527.114-.329.124-.75.109-4.649-.015-4.064-.024-4.303-.157-4.57z"/><path d="M80.027 9.582c-.284-3.401-.509-4.505-1.211-5.923-.929-1.878-2.272-2.868-4.184-3.086-1.478-.168-7.041-.405-12.189-.52-8.912-.198-23.564.183-25.436.662-.865.221-1.513.597-2.188 1.269-1.183 1.177-1.887 2.865-2.17 5.2-.647 5.331-.66 11.773-.037 17.297.268 2.376.82 3.92 1.857 5.192.647.794 1.761 1.469 2.758 1.67.7.141 4.201.337 9.3.521.76.027 2.771.074 4.47.105 3.541.063 10.051.026 13.772-.079 2.504-.07 7.069-.255 7.922-.321.24-.019.796-.054 1.236-.079 1.477-.083 2.417-.393 3.3-1.086 1.142-.897 2.027-2.556 2.4-4.501.354-1.84.59-5.118.638-8.839.04-3.109-.013-4.787-.238-7.482zM44.54 8.35l-1.656.02-.073 17.661-1.435.018c-1.11.015-1.447-.001-1.474-.073-.019-.051-.042-4.032-.052-8.849l-.018-8.758-3.234-.041v-2.76l9.557.039.041 2.721-1.656.02zm10.154 10.122v7.595h-2.616v-.799c0-.601-.023-.799-.093-.799-.051 0-.288.198-.527.441-.517.526-1.13.949-1.653 1.145-1.083.405-2.112.169-2.551-.586-.401-.691-.409-.845-.409-8.01v-6.58h2.614l.02 6.196c.019 6.088.022 6.2.168 6.448.193.329.488.417.956.288.276-.076.464-.21.911-.654l.563-.561V10.879h2.616v7.595zm10.205 6.51c-.23.513-.744 1.016-1.165 1.14-1.099.324-1.98.06-2.998-.897-.316-.297-.61-.538-.654-.538-.053 0-.082.233-.082.69v.69h-2.616V5.572H60v3.343c0 1.839.025 3.343.054 3.343s.306-.244.613-.541c.707-.683 1.298-.981 2.049-1.038 1.338-.101 2.135.587 2.501 2.16.114.491.125 1.051.125 5.596 0 5.537-.001 5.56-.443 6.546zm11.069-3.039c-.023.57-.092 1.223-.154 1.454-.364 1.349-1.332 2.304-2.732 2.696-1.885.527-3.96-.337-4.788-1.994-.465-.93-.481-1.116-.481-5.662 0-3.707.013-4.162.132-4.667.336-1.431 1.168-2.357 2.578-2.871a3.917 3.917 0 011.261-.234c1.521-.031 3.031.787 3.663 2.119.427.899.48 1.283.522 3.816l.039 2.271-5.578.039-.02 1.526c-.029 2.153.116 2.815.697 3.207.489.329 1.24.305 1.649-.055.383-.337.491-.698.529-1.753l.034-.927h2.694l-.043 1.036z"/></symbol></svg>